<mxfile host="app.diagrams.net" modified="2023-07-10T13:28:27.076Z" agent="Mozilla/5.0 (Windows NT 10.0; Win64; x64) AppleWebKit/537.36 (KHTML, like Gecko) Chrome/114.0.0.0 Safari/537.36" etag="QV7PR8kHVN45QSF5DP1A" version="21.1.1" type="device">
  <diagram name="PÃ¡gina-1" id="_vz_IvxnUEZitGikyZ5h">
    <mxGraphModel dx="794" dy="404" grid="1" gridSize="10" guides="1" tooltips="1" connect="1" arrows="1" fold="1" page="1" pageScale="1" pageWidth="827" pageHeight="1169" math="0" shadow="0">
      <root>
        <mxCell id="0" />
        <mxCell id="1" parent="0" />
        <mxCell id="szHA-wG7hJZg5nwXG7Et-9" value="" style="edgeStyle=orthogonalEdgeStyle;rounded=0;orthogonalLoop=1;jettySize=auto;html=1;" edge="1" parent="1" source="szHA-wG7hJZg5nwXG7Et-1" target="szHA-wG7hJZg5nwXG7Et-2">
          <mxGeometry relative="1" as="geometry" />
        </mxCell>
        <mxCell id="szHA-wG7hJZg5nwXG7Et-1" value="Business&lt;br&gt;Problem&amp;nbsp;" style="rounded=0;whiteSpace=wrap;html=1;" vertex="1" parent="1">
          <mxGeometry x="110" y="50" width="120" height="60" as="geometry" />
        </mxCell>
        <mxCell id="szHA-wG7hJZg5nwXG7Et-10" value="" style="edgeStyle=orthogonalEdgeStyle;rounded=0;orthogonalLoop=1;jettySize=auto;html=1;" edge="1" parent="1" source="szHA-wG7hJZg5nwXG7Et-2" target="szHA-wG7hJZg5nwXG7Et-3">
          <mxGeometry relative="1" as="geometry" />
        </mxCell>
        <mxCell id="szHA-wG7hJZg5nwXG7Et-2" value="Success&lt;br&gt;Criteria" style="rounded=0;whiteSpace=wrap;html=1;" vertex="1" parent="1">
          <mxGeometry x="270" y="50" width="120" height="60" as="geometry" />
        </mxCell>
        <mxCell id="szHA-wG7hJZg5nwXG7Et-11" style="edgeStyle=orthogonalEdgeStyle;rounded=0;orthogonalLoop=1;jettySize=auto;html=1;exitX=1;exitY=0.5;exitDx=0;exitDy=0;entryX=0;entryY=0.5;entryDx=0;entryDy=0;" edge="1" parent="1" source="szHA-wG7hJZg5nwXG7Et-3" target="szHA-wG7hJZg5nwXG7Et-4">
          <mxGeometry relative="1" as="geometry" />
        </mxCell>
        <mxCell id="szHA-wG7hJZg5nwXG7Et-3" value="Data&amp;nbsp;&lt;br&gt;Collection" style="rounded=0;whiteSpace=wrap;html=1;" vertex="1" parent="1">
          <mxGeometry x="430" y="50" width="120" height="60" as="geometry" />
        </mxCell>
        <mxCell id="szHA-wG7hJZg5nwXG7Et-12" style="edgeStyle=orthogonalEdgeStyle;rounded=0;orthogonalLoop=1;jettySize=auto;html=1;exitX=1;exitY=0.5;exitDx=0;exitDy=0;entryX=0;entryY=0.5;entryDx=0;entryDy=0;" edge="1" parent="1" source="szHA-wG7hJZg5nwXG7Et-4" target="szHA-wG7hJZg5nwXG7Et-5">
          <mxGeometry relative="1" as="geometry" />
        </mxCell>
        <mxCell id="szHA-wG7hJZg5nwXG7Et-4" value="Data &lt;br&gt;preprocessing/&lt;br&gt;Feature&lt;br&gt;engineering" style="rounded=0;whiteSpace=wrap;html=1;" vertex="1" parent="1">
          <mxGeometry x="720" y="50" width="380" height="60" as="geometry" />
        </mxCell>
        <mxCell id="szHA-wG7hJZg5nwXG7Et-13" style="edgeStyle=orthogonalEdgeStyle;rounded=0;orthogonalLoop=1;jettySize=auto;html=1;exitX=0.5;exitY=1;exitDx=0;exitDy=0;entryX=0.5;entryY=0;entryDx=0;entryDy=0;" edge="1" parent="1" source="szHA-wG7hJZg5nwXG7Et-5" target="szHA-wG7hJZg5nwXG7Et-6">
          <mxGeometry relative="1" as="geometry" />
        </mxCell>
        <mxCell id="szHA-wG7hJZg5nwXG7Et-5" value="Model &lt;br&gt;trainning" style="rounded=0;whiteSpace=wrap;html=1;" vertex="1" parent="1">
          <mxGeometry x="1260" y="50" width="120" height="60" as="geometry" />
        </mxCell>
        <mxCell id="szHA-wG7hJZg5nwXG7Et-14" style="edgeStyle=orthogonalEdgeStyle;rounded=0;orthogonalLoop=1;jettySize=auto;html=1;exitX=0.5;exitY=1;exitDx=0;exitDy=0;entryX=0.994;entryY=0.633;entryDx=0;entryDy=0;entryPerimeter=0;fillColor=#fff2cc;strokeColor=#d6b656;" edge="1" parent="1" source="szHA-wG7hJZg5nwXG7Et-6" target="szHA-wG7hJZg5nwXG7Et-7">
          <mxGeometry relative="1" as="geometry">
            <Array as="points">
              <mxPoint x="1320" y="368" />
            </Array>
          </mxGeometry>
        </mxCell>
        <mxCell id="szHA-wG7hJZg5nwXG7Et-6" value="Model &lt;br&gt;evaluation" style="rounded=0;whiteSpace=wrap;html=1;" vertex="1" parent="1">
          <mxGeometry x="1260" y="190" width="120" height="60" as="geometry" />
        </mxCell>
        <mxCell id="szHA-wG7hJZg5nwXG7Et-15" style="edgeStyle=orthogonalEdgeStyle;rounded=0;orthogonalLoop=1;jettySize=auto;html=1;exitX=0;exitY=0.5;exitDx=0;exitDy=0;entryX=1;entryY=0.5;entryDx=0;entryDy=0;fillColor=#fff2cc;strokeColor=#d6b656;" edge="1" parent="1" source="szHA-wG7hJZg5nwXG7Et-7" target="szHA-wG7hJZg5nwXG7Et-8">
          <mxGeometry relative="1" as="geometry" />
        </mxCell>
        <mxCell id="szHA-wG7hJZg5nwXG7Et-7" value="Model&lt;br&gt;&amp;nbsp;deployment" style="rounded=0;whiteSpace=wrap;html=1;fillColor=#FFFFFF;strokeColor=#CCCC00;" vertex="1" parent="1">
          <mxGeometry x="1070" y="330" width="120" height="60" as="geometry" />
        </mxCell>
        <mxCell id="szHA-wG7hJZg5nwXG7Et-8" value="Model &lt;br&gt;moitoring" style="rounded=0;whiteSpace=wrap;html=1;strokeColor=#CCCC00;" vertex="1" parent="1">
          <mxGeometry x="790" y="330" width="120" height="60" as="geometry" />
        </mxCell>
        <mxCell id="szHA-wG7hJZg5nwXG7Et-17" value="" style="curved=1;endArrow=classic;html=1;rounded=0;entryX=0.5;entryY=1;entryDx=0;entryDy=0;exitX=0;exitY=0.5;exitDx=0;exitDy=0;fillColor=#fff2cc;strokeColor=#d6b656;" edge="1" parent="1" source="szHA-wG7hJZg5nwXG7Et-8" target="szHA-wG7hJZg5nwXG7Et-3">
          <mxGeometry width="50" height="50" relative="1" as="geometry">
            <mxPoint x="570" y="240" as="sourcePoint" />
            <mxPoint x="620" y="190" as="targetPoint" />
            <Array as="points">
              <mxPoint x="510" y="340" />
              <mxPoint x="470" y="310" />
            </Array>
          </mxGeometry>
        </mxCell>
        <mxCell id="szHA-wG7hJZg5nwXG7Et-18" value="" style="curved=1;endArrow=classic;html=1;rounded=0;exitX=0;exitY=0.5;exitDx=0;exitDy=0;entryX=0.7;entryY=1.089;entryDx=0;entryDy=0;entryPerimeter=0;" edge="1" parent="1" source="szHA-wG7hJZg5nwXG7Et-6" target="szHA-wG7hJZg5nwXG7Et-3">
          <mxGeometry width="50" height="50" relative="1" as="geometry">
            <mxPoint x="1170" y="240" as="sourcePoint" />
            <mxPoint x="550" y="160" as="targetPoint" />
            <Array as="points">
              <mxPoint x="1220" y="240" />
              <mxPoint x="1130" y="260" />
              <mxPoint x="520" y="310" />
            </Array>
          </mxGeometry>
        </mxCell>
        <mxCell id="szHA-wG7hJZg5nwXG7Et-19" value="" style="curved=1;endArrow=classic;html=1;rounded=0;exitX=0;exitY=0.25;exitDx=0;exitDy=0;entryX=0.5;entryY=1;entryDx=0;entryDy=0;" edge="1" parent="1" source="szHA-wG7hJZg5nwXG7Et-6" target="szHA-wG7hJZg5nwXG7Et-4">
          <mxGeometry width="50" height="50" relative="1" as="geometry">
            <mxPoint x="1190" y="200" as="sourcePoint" />
            <mxPoint x="1240" y="150" as="targetPoint" />
            <Array as="points">
              <mxPoint x="1240" y="200" />
              <mxPoint x="1170" y="210" />
              <mxPoint x="870" y="210" />
            </Array>
          </mxGeometry>
        </mxCell>
      </root>
    </mxGraphModel>
  </diagram>
</mxfile>
